# xmcd
#
# Track frame offsets: 
#        150
#        30982
#        69455
#        89637
#        116955
#        143660
#        211610
#        250320
#
# Disc length: 4006 seconds
#
# Revision: 1
# Processed by: cddbd v1.5.2PL0 Copyright (c) Steve Scherf et al.
# Submitted via: ExactAudioCopy v0.99pb5
#
DISCID=6c0fa408
DTITLE=Jeroen van Veen - Minimal Piano Works Volume 1
DYEAR=1999
DGENRE=Classical
TTITLE0=Metamorphosis One
TTITLE1=Metamorphosis Two
TTITLE2=Metamorphosis Three
TTITLE3=Metamorphosis Four
TTITLE4=Metamorphosis Five
TTITLE5=Mad Rush
TTITLE6=Wichita Vortex Sutra
TTITLE7=Opening from Glassworks (arr. Van Veen)
EXTD=X...U...
EXTT0=composed by Philip Glass
EXTT1=composed by Philip Glass
EXTT2=composed by Philip Glass
EXTT3=composed by Philip Glass
EXTT4=composed by Philip Glass
EXTT5=composed by Philip Glass
EXTT6=composed by Philip Glass
EXTT7=composed by Philip Glass
PLAYORDER=
